<svg width="121" height="32" viewBox="0 0 121 32" fill="none" xmlns="http://www.w3.org/2000/svg">
<path d="M23 22.6016C23 23.7604 22.7786 24.8477 22.3359 25.8633C21.8932 26.8789 21.2878 27.7708 20.5195 28.5391C19.7643 29.2943 18.8789 29.8932 17.8633 30.3359C16.8477 30.7786 15.7604 31 14.6016 31H0.597656V2.99219H14.6016C15.7604 2.99219 16.8477 3.21354 17.8633 3.65625C18.8789 4.09896 19.7643 4.70443 20.5195 5.47266C21.2878 6.22786 21.8932 7.11328 22.3359 8.12891C22.7786 9.14453 23 10.2318 23 11.3906C23 11.9115 22.9284 12.4453 22.7852 12.9922C22.6419 13.5391 22.4401 14.0664 22.1797 14.5742C21.9193 15.082 21.6068 15.5443 21.2422 15.9609C20.8776 16.3776 20.474 16.7227 20.0312 16.9961C20.487 17.2435 20.8971 17.582 21.2617 18.0117C21.6263 18.4284 21.9388 18.8906 22.1992 19.3984C22.4596 19.9062 22.6549 20.4401 22.7852 21C22.9284 21.5469 23 22.0807 23 22.6016ZM6.20312 25.3945H14.6016C14.9922 25.3945 15.3568 25.3229 15.6953 25.1797C16.0339 25.0365 16.3268 24.8411 16.5742 24.5938C16.8346 24.3333 17.0365 24.0339 17.1797 23.6953C17.3229 23.3568 17.3945 22.9922 17.3945 22.6016C17.3945 22.2109 17.3229 21.8464 17.1797 21.5078C17.0365 21.1693 16.8346 20.8763 16.5742 20.6289C16.3268 20.3685 16.0339 20.1667 15.6953 20.0234C15.3568 19.8802 14.9922 19.8086 14.6016 19.8086H6.20312V25.3945ZM6.20312 14.2031H14.6016C14.9922 14.2031 15.3568 14.1315 15.6953 13.9883C16.0339 13.8451 16.3268 13.6497 16.5742 13.4023C16.8346 13.1419 17.0365 12.8424 17.1797 12.5039C17.3229 12.1523 17.3945 11.7812 17.3945 11.3906C17.3945 11 17.3229 10.6354 17.1797 10.2969C17.0365 9.95833 16.8346 9.66536 16.5742 9.41797C16.3268 9.15755 16.0339 8.95573 15.6953 8.8125C15.3568 8.66927 14.9922 8.59766 14.6016 8.59766H6.20312V14.2031ZM32.9609 4.39844C32.9609 4.89323 32.8633 5.35547 32.668 5.78516C32.4857 6.21484 32.2318 6.59245 31.9062 6.91797C31.5807 7.23047 31.1966 7.48438 30.7539 7.67969C30.3242 7.86198 29.862 7.95312 29.3672 7.95312C28.8724 7.95312 28.4036 7.86198 27.9609 7.67969C27.5312 7.48438 27.1536 7.23047 26.8281 6.91797C26.5156 6.59245 26.2617 6.21484 26.0664 5.78516C25.8841 5.35547 25.793 4.89323 25.793 4.39844C25.793 3.91667 25.8841 3.46094 26.0664 3.03125C26.2617 2.58854 26.5156 2.21094 26.8281 1.89844C27.1536 1.57292 27.5312 1.31901 27.9609 1.13672C28.4036 0.941406 28.8724 0.84375 29.3672 0.84375C29.862 0.84375 30.3242 0.941406 30.7539 1.13672C31.1966 1.31901 31.5807 1.57292 31.9062 1.89844C32.2318 2.21094 32.4857 2.58854 32.668 3.03125C32.8633 3.46094 32.9609 3.91667 32.9609 4.39844ZM32.043 31H26.6719V10.082H32.043V31ZM57.0625 20.3555C57.0625 21.9961 56.7826 23.4935 56.2227 24.8477C55.6628 26.2018 54.901 27.3672 53.9375 28.3438C52.974 29.3073 51.8411 30.056 50.5391 30.5898C49.25 31.1237 47.8633 31.3906 46.3789 31.3906C44.9076 31.3906 43.5208 31.1172 42.2188 30.5703C40.9297 30.0234 39.7969 29.2617 38.8203 28.2852C37.8568 27.3086 37.0951 26.1497 36.5352 24.8086C35.9753 23.4544 35.6953 21.9701 35.6953 20.3555V1.76172H41.0469V11.5273C41.3333 11.1628 41.6784 10.8372 42.082 10.5508C42.4987 10.2643 42.9414 10.0299 43.4102 9.84766C43.8919 9.66536 44.3867 9.52865 44.8945 9.4375C45.4023 9.33333 45.8971 9.28125 46.3789 9.28125C47.8633 9.28125 49.25 9.5612 50.5391 10.1211C51.8411 10.668 52.974 11.4362 53.9375 12.4258C54.901 13.4154 55.6628 14.5872 56.2227 15.9414C56.7826 17.2826 57.0625 18.7539 57.0625 20.3555ZM51.6914 20.3555C51.6914 19.5482 51.5482 18.7995 51.2617 18.1094C50.9883 17.4062 50.6107 16.8008 50.1289 16.293C49.6471 15.7852 49.0807 15.388 48.4297 15.1016C47.7917 14.8151 47.1081 14.6719 46.3789 14.6719C45.6497 14.6719 44.9596 14.8346 44.3086 15.1602C43.6706 15.4727 43.1107 15.8958 42.6289 16.4297C42.1471 16.9505 41.7695 17.556 41.4961 18.2461C41.2227 18.9232 41.0859 19.6263 41.0859 20.3555C41.0859 21.1628 41.2227 21.9115 41.4961 22.6016C41.7695 23.2917 42.1471 23.8906 42.6289 24.3984C43.1107 24.9062 43.6706 25.3099 44.3086 25.6094C44.9596 25.8958 45.6497 26.0391 46.3789 26.0391C47.1081 26.0391 47.7917 25.8958 48.4297 25.6094C49.0807 25.3099 49.6471 24.9062 50.1289 24.3984C50.6107 23.8906 50.9883 23.2917 51.2617 22.6016C51.5482 21.9115 51.6914 21.1628 51.6914 20.3555ZM80.9688 20.3555C80.9688 21.9961 80.6888 23.4935 80.1289 24.8477C79.569 26.2018 78.8073 27.3672 77.8438 28.3438C76.8802 29.3073 75.7474 30.056 74.4453 30.5898C73.1562 31.1237 71.7695 31.3906 70.2852 31.3906C68.8138 31.3906 67.4271 31.1172 66.125 30.5703C64.8359 30.0234 63.7031 29.2617 62.7266 28.2852C61.763 27.3086 61.0013 26.1497 60.4414 24.8086C59.8815 23.4544 59.6016 21.9701 59.6016 20.3555V1.76172H64.9531V11.5273C65.2396 11.1628 65.5846 10.8372 65.9883 10.5508C66.4049 10.2643 66.8477 10.0299 67.3164 9.84766C67.7982 9.66536 68.293 9.52865 68.8008 9.4375C69.3086 9.33333 69.8034 9.28125 70.2852 9.28125C71.7695 9.28125 73.1562 9.5612 74.4453 10.1211C75.7474 10.668 76.8802 11.4362 77.8438 12.4258C78.8073 13.4154 79.569 14.5872 80.1289 15.9414C80.6888 17.2826 80.9688 18.7539 80.9688 20.3555ZM75.5977 20.3555C75.5977 19.5482 75.4544 18.7995 75.168 18.1094C74.8945 17.4062 74.5169 16.8008 74.0352 16.293C73.5534 15.7852 72.987 15.388 72.3359 15.1016C71.6979 14.8151 71.0143 14.6719 70.2852 14.6719C69.556 14.6719 68.8659 14.8346 68.2148 15.1602C67.5768 15.4727 67.0169 15.8958 66.5352 16.4297C66.0534 16.9505 65.6758 17.556 65.4023 18.2461C65.1289 18.9232 64.9922 19.6263 64.9922 20.3555C64.9922 21.1628 65.1289 21.9115 65.4023 22.6016C65.6758 23.2917 66.0534 23.8906 66.5352 24.3984C67.0169 24.9062 67.5768 25.3099 68.2148 25.6094C68.8659 25.8958 69.556 26.0391 70.2852 26.0391C71.0143 26.0391 71.6979 25.8958 72.3359 25.6094C72.987 25.3099 73.5534 24.9062 74.0352 24.3984C74.5169 23.8906 74.8945 23.2917 75.168 22.6016C75.4544 21.9115 75.5977 21.1628 75.5977 20.3555ZM89.3086 31H83.9375V1.76172H89.3086V31ZM99.6797 4.39844C99.6797 4.89323 99.582 5.35547 99.3867 5.78516C99.2044 6.21484 98.9505 6.59245 98.625 6.91797C98.2995 7.23047 97.9154 7.48438 97.4727 7.67969C97.043 7.86198 96.5807 7.95312 96.0859 7.95312C95.5911 7.95312 95.1224 7.86198 94.6797 7.67969C94.25 7.48438 93.8724 7.23047 93.5469 6.91797C93.2344 6.59245 92.9805 6.21484 92.7852 5.78516C92.6029 5.35547 92.5117 4.89323 92.5117 4.39844C92.5117 3.91667 92.6029 3.46094 92.7852 3.03125C92.9805 2.58854 93.2344 2.21094 93.5469 1.89844C93.8724 1.57292 94.25 1.31901 94.6797 1.13672C95.1224 0.941406 95.5911 0.84375 96.0859 0.84375C96.5807 0.84375 97.043 0.941406 97.4727 1.13672C97.9154 1.31901 98.2995 1.57292 98.625 1.89844C98.9505 2.21094 99.2044 2.58854 99.3867 3.03125C99.582 3.46094 99.6797 3.91667 99.6797 4.39844ZM98.7617 31H93.3906V10.082H98.7617V31ZM114.328 31H102.141V25.6875H114.328C114.693 25.6875 115.005 25.5573 115.266 25.2969C115.526 25.0365 115.656 24.724 115.656 24.3594C115.656 23.9818 115.526 23.7344 115.266 23.6172C115.005 23.5 114.693 23.4414 114.328 23.4414H108.781C107.857 23.4414 106.991 23.2656 106.184 22.9141C105.376 22.5625 104.673 22.0872 104.074 21.4883C103.475 20.8763 103 20.1667 102.648 19.3594C102.31 18.5521 102.141 17.6862 102.141 16.7617C102.141 15.8372 102.31 14.9714 102.648 14.1641C103 13.3568 103.475 12.6536 104.074 12.0547C104.673 11.4557 105.376 10.987 106.184 10.6484C106.991 10.2969 107.857 10.1211 108.781 10.1211H119.582V15.4336H108.781C108.417 15.4336 108.104 15.5638 107.844 15.8242C107.583 16.0846 107.453 16.3971 107.453 16.7617C107.453 17.1393 107.583 17.4648 107.844 17.7383C108.104 17.9987 108.417 18.1289 108.781 18.1289H114.328C115.24 18.1289 116.099 18.2852 116.906 18.5977C117.714 18.8971 118.417 19.3203 119.016 19.8672C119.615 20.4141 120.09 21.0716 120.441 21.8398C120.793 22.6081 120.969 23.4479 120.969 24.3594C120.969 25.2839 120.793 26.1497 120.441 26.957C120.09 27.7513 119.615 28.4544 119.016 29.0664C118.417 29.6654 117.714 30.1406 116.906 30.4922C116.099 30.8307 115.24 31 114.328 31Z" fill="white"/>
</svg>
